<svg id="Layer_1" data-name="Layer 1" xmlns="http://www.w3.org/2000/svg" viewBox="0 0 146.97 175.5"><defs><style>.cls-1{fill:#0079c1;}.cls-2{fill:#00274c;}</style></defs><title>aXeLogo</title><polygon class="cls-1" points="10.42 105.53 70.72 0 131.03 105.53 10.42 105.53"/><polygon class="cls-2" points="19.53 89.59 70.72 0 121.92 89.59 19.53 89.59"/><path class="cls-2" d="M58.28,126.38v2.55a15.08,15.08,0,1,0,0,25.05v2.55H65V126.38Zm-8.39,23.45a8.38,8.38,0,1,1,8.38-8.38A8.38,8.38,0,0,1,49.89,149.84Z" transform="translate(-16.51 -2.25)"/><polygon class="cls-1" points="88.78 126.38 84.05 121.64 71.34 134.35 58.63 121.64 53.89 126.38 66.6 139.09 53.89 151.79 58.63 156.53 71.34 143.82 84.05 156.53 88.78 151.79 76.08 139.09 88.78 126.38"/><path class="cls-2" d="M137.35,144.63a15,15,0,1,0-.32,1.26H129.7a8.34,8.34,0,0,1-14.82-1.26Zm-14.73-11.55a8.37,8.37,0,0,1,7.57,4.85H115.05A8.37,8.37,0,0,1,122.62,133.09Z" transform="translate(-16.51 -2.25)"/><path class="cls-2" d="M18.42,168.87h-1.9v-1.22h5.13v1.22h-1.9v8.69H18.42Z" transform="translate(-16.51 -2.25)"/><path class="cls-2" d="M23.05,177.56v-9.91h1.33v4.19h3.17v-4.19h1.34v9.91H27.55v-4.5H24.38v4.5Z" transform="translate(-16.51 -2.25)"/><path class="cls-2" d="M31,167.65h4.7v1.22H32.31v3h3.38v1.22H32.31v3.28h3.38v1.22H31Z" transform="translate(-16.51 -2.25)"/><path class="cls-2" d="M41.14,177.56H39.79l2.79-9.91h1.27l2.85,9.91H45.35l-.74-2.6H41.87Zm2.09-8.1-1,4.29h2.06Z" transform="translate(-16.51 -2.25)"/><path class="cls-2" d="M53.83,174.15c0,1.87-1.08,3.6-3.25,3.6s-3.48-1.76-3.48-5.14,1.25-5.14,3.48-5.14,3.27,1.77,3.25,3.78H52.49c0-1.43-.54-2.52-1.82-2.52-1.49,0-2.22,1.41-2.22,4s1,3.82,2.22,3.82,1.77-1.21,1.82-2.34Z" transform="translate(-16.51 -2.25)"/><path class="cls-2" d="M61.76,174.15c0,1.87-1.08,3.6-3.25,3.6S55,176,55,172.61s1.24-5.14,3.48-5.14,3.27,1.77,3.25,3.78H60.42c0-1.43-.54-2.52-1.82-2.52-1.49,0-2.22,1.41-2.22,4s1,3.82,2.22,3.82,1.77-1.21,1.82-2.34Z" transform="translate(-16.51 -2.25)"/><path class="cls-2" d="M63.41,167.65h4.7v1.22H64.74v3h3.38v1.22H64.74v3.28h3.38v1.22h-4.7Z" transform="translate(-16.51 -2.25)"/><path class="cls-2" d="M71,174.71c.09,1.38.83,1.86,1.62,1.86a1.57,1.57,0,0,0,1.65-1.69c0-1.29-1.18-1.58-2.18-1.93s-2.24-.87-2.24-2.63a2.78,2.78,0,0,1,5.56-.26H74.12a1.45,1.45,0,0,0-1.47-1.5,1.41,1.41,0,0,0-1.43,1.54c0,1.19,1,1.46,2.21,1.87a2.93,2.93,0,0,1-.8,5.76,2.75,2.75,0,0,1-2.93-3Z" transform="translate(-16.51 -2.25)"/><path class="cls-2" d="M78.14,174.71c.09,1.38.83,1.86,1.62,1.86a1.57,1.57,0,0,0,1.65-1.69c0-1.29-1.18-1.58-2.18-1.93S77,172.08,77,170.33a2.78,2.78,0,0,1,5.56-.26H81.26a1.45,1.45,0,0,0-1.47-1.5,1.41,1.41,0,0,0-1.43,1.54c0,1.19,1,1.46,2.21,1.87a2.93,2.93,0,0,1-.8,5.76,2.75,2.75,0,0,1-2.93-3Z" transform="translate(-16.51 -2.25)"/><path class="cls-2" d="M84.39,167.65h1.33v9.91H84.39Z" transform="translate(-16.51 -2.25)"/><path class="cls-2" d="M87.75,167.65h2.36a2.7,2.7,0,0,1,1.91.56,2.36,2.36,0,0,1,.79,1.93,1.92,1.92,0,0,1-1.45,2.08,2.49,2.49,0,0,1,1.9,2.56,2.62,2.62,0,0,1-1,2.18,2.74,2.74,0,0,1-1.83.6H87.75Zm1.33,4.15H90a1.54,1.54,0,0,0,1-.25,1.45,1.45,0,0,0,.52-1.26,1.5,1.5,0,0,0-.51-1.21,1.71,1.71,0,0,0-1.12-.25h-.75Zm0,4.58h1.08a1.86,1.86,0,0,0,1.13-.28,1.48,1.48,0,0,0,.62-1.38,1.66,1.66,0,0,0-.63-1.43,1.81,1.81,0,0,0-1.19-.31h-1Z" transform="translate(-16.51 -2.25)"/><path class="cls-2" d="M94.93,167.65h1.33v9.91H94.93Z" transform="translate(-16.51 -2.25)"/><path class="cls-2" d="M98.35,167.65h1.33v8.69h3v1.22H98.35Z" transform="translate(-16.51 -2.25)"/><path class="cls-2" d="M104.09,167.65h1.33v9.91h-1.33Z" transform="translate(-16.51 -2.25)"/><path class="cls-2" d="M108.74,168.87h-1.9v-1.22H112v1.22h-1.9v8.69h-1.33Z" transform="translate(-16.51 -2.25)"/><path class="cls-2" d="M114.94,173.85l-2.49-6.2h1.36l1.8,4.94,1.78-4.94h1.37l-2.49,6.2v3.71h-1.33Z" transform="translate(-16.51 -2.25)"/><path class="cls-2" d="M123.58,167.65h4.7v1.22h-3.38v3h3.38v1.22h-3.38v3.28h3.38v1.22h-4.7Z" transform="translate(-16.51 -2.25)"/><path class="cls-2" d="M135.32,175.15v-7.5h1.19v9.91h-1.34l-3.68-7.79v7.79H130.3v-9.91h1.47Z" transform="translate(-16.51 -2.25)"/><path class="cls-2" d="M143.9,171a3,3,0,0,0-.38-1.37,1.72,1.72,0,0,0-1.61-1c-1.45,0-2.37,1.29-2.37,3.92s1,3.92,2.37,3.92a1.77,1.77,0,0,0,1.68-1,3.83,3.83,0,0,0,.39-1.94h-2.45v-1.22h3.8V174c-.05,1.81-1.07,3.75-3.42,3.75-2.55,0-3.72-2.1-3.72-5.14s1.37-5.14,3.72-5.14c2.08,0,3.21,1.54,3.32,3.54Z" transform="translate(-16.51 -2.25)"/><path class="cls-2" d="M147,167.65h1.33v9.91H147Z" transform="translate(-16.51 -2.25)"/><path class="cls-2" d="M155.46,175.15v-7.5h1.19v9.91h-1.34l-3.68-7.79v7.79h-1.19v-9.91h1.48Z" transform="translate(-16.51 -2.25)"/><path class="cls-2" d="M158.79,167.65h4.7v1.22h-3.37v3h3.37v1.22h-3.37v3.28h3.37v1.22h-4.7Z" transform="translate(-16.51 -2.25)"/></svg>